<?xml version="1.0" encoding="utf-8"?>
<!-- Generated by IcoMoon.io -->
<svg version="1.1" xmlns="http://www.w3.org/2000/svg" xmlns:xlink="http://www.w3.org/1999/xlink" width="35" height="96" viewBox="0 0 35 96">
<svg id="exchange" viewBox="0 0 32 32">
<path d="M12.929 4.143c-1.643 0.143-4.536 1.83-5.249 3.19-2.347 4.476-0.533 7.013-0.373 7.312 1.977 3.688 7.637 4.063 11.131 5.408 1.232 0.474 0.845 1.837 0.389 2.043-4.422 1.999-9.6-1.936-9.6-1.936s-2.155 3.292-3.309 5.149c2.461 1.811 6.989 2.797 6.989 2.797v3.36h6.613l-0.020-3.419c0 0 4.095-0.882 5.54-3.568 2.103-3.908 0.24-7.2 0-7.68-1.651-3.305-11.421-4.443-11.627-5.707-0.054-0.331 0.092-1.148 0.4-1.28 0.373-0.16 3.996-1.265 8.677 1.867 1.083-1.723 3.163-5.072 3.163-5.072s-2.415-2.060-6.133-2.608c0-1.429 0-3.467 0-3.467h-6.613c0-0-0.001 1.967 0.022 3.609z"></path>
</svg>
<svg id="statistic"  viewBox="0 0 32 32">
<path d="M29.5 7c-1.381 0-2.5 1.12-2.5 2.5 0 0.284 0.058 0.551 0.144 0.805l-6.094 5.247c-0.427-0.341-0.961-0.553-1.55-0.553-0.68 0-1.294 0.273-1.744 0.713l-4.774-2.39c-0.093-1.296-1.162-2.323-2.482-2.323-1.38 0-2.5 1.12-2.5 2.5 0 0.378 0.090 0.732 0.24 1.053l-4.867 5.612c-0.273-0.102-0.564-0.166-0.873-0.166-1.381 0-2.5 1.119-2.5 2.5s1.119 2.5 2.5 2.5c1.381 0 2.5-1.119 2.5-2.5 0-0.332-0.068-0.649-0.186-0.939l4.946-5.685c0.236 0.073 0.48 0.124 0.74 0.124 0.727 0 1.377-0.316 1.834-0.813l4.669 2.341c0.017 1.367 1.127 2.471 2.497 2.471 1.381 0 2.5-1.119 2.5-2.5 0-0.044-0.011-0.086-0.013-0.13l6.503-5.587c0.309 0.137 0.649 0.216 1.010 0.216 1.381 0 2.5-1.119 2.5-2.5s-1.119-2.5-2.5-2.5z"></path>
</svg>
<svg id="home"  viewBox="0 0 35 32">
<path d="M32.64 15.401c0.599-0.65 0.541-1.646-0.129-2.225l-14.772-12.75c-0.671-0.578-1.745-0.566-2.402 0.027l-14.822 13.403c-0.656 0.594-0.689 1.589-0.071 2.222l0.372 0.382c0.617 0.633 1.613 0.708 2.224 0.168l1.108-0.979v14.326c0 0.879 0.722 1.591 1.612 1.591h5.778c0.89 0 1.612-0.712 1.612-1.591v-10.023h7.37v10.023c-0.013 0.878 0.624 1.59 1.515 1.59h6.123c0.89 0 1.613-0.711 1.613-1.59v-14.124c0 0 0.306 0.264 0.683 0.592s1.168 0.065 1.767-0.586l0.42-0.455z"></path>
</svg>
<svg id="pen"  viewBox="0 0 32 32" >
<path fill="none" stroke-linejoin="round" stroke-linecap="round" stroke-miterlimit="4" stroke-width="2.7429" stroke="#000" d="M24 13.334l-5.333-5.333M3.333 28.667l4.513-0.502c0.551-0.061 0.827-0.092 1.085-0.175 0.229-0.074 0.446-0.178 0.647-0.311 0.226-0.149 0.422-0.345 0.814-0.737l17.608-17.608c1.473-1.473 1.473-3.861 0-5.333s-3.861-1.473-5.333 0l-17.608 17.608c-0.392 0.392-0.588 0.588-0.737 0.814-0.132 0.201-0.237 0.418-0.311 0.647-0.083 0.258-0.114 0.533-0.175 1.085l-0.501 4.513z"></path>
</svg>
</svg>
