<?xml version="1.0" encoding="utf-8"?>
<!-- Generated by IcoMoon.io -->
<svg version="1.1" xmlns="http://www.w3.org/2000/svg" xmlns:xlink="http://www.w3.org/1999/xlink" width="35" height="96" viewBox="0 0 35 96">
<svg id="exchange" viewBox="0 0 32 32">
<path d="M12.929 4.143c-1.643 0.143-4.536 1.83-5.249 3.19-2.347 4.476-0.533 7.013-0.373 7.312 1.977 3.688 7.637 4.063 11.131 5.408 1.232 0.474 0.845 1.837 0.389 2.043-4.422 1.999-9.6-1.936-9.6-1.936s-2.155 3.292-3.309 5.149c2.461 1.811 6.989 2.797 6.989 2.797v3.36h6.613l-0.020-3.419c0 0 4.095-0.882 5.54-3.568 2.103-3.908 0.24-7.2 0-7.68-1.651-3.305-11.421-4.443-11.627-5.707-0.054-0.331 0.092-1.148 0.4-1.28 0.373-0.16 3.996-1.265 8.677 1.867 1.083-1.723 3.163-5.072 3.163-5.072s-2.415-2.060-6.133-2.608c0-1.429 0-3.467 0-3.467h-6.613c0-0-0.001 1.967 0.022 3.609z"></path>
</svg>
<svg id="statistic"  viewBox="0 0 32 32">
<path d="M29.5 7c-1.381 0-2.5 1.12-2.5 2.5 0 0.284 0.058 0.551 0.144 0.805l-6.094 5.247c-0.427-0.341-0.961-0.553-1.55-0.553-0.68 0-1.294 0.273-1.744 0.713l-4.774-2.39c-0.093-1.296-1.162-2.323-2.482-2.323-1.38 0-2.5 1.12-2.5 2.5 0 0.378 0.090 0.732 0.24 1.053l-4.867 5.612c-0.273-0.102-0.564-0.166-0.873-0.166-1.381 0-2.5 1.119-2.5 2.5s1.119 2.5 2.5 2.5c1.381 0 2.5-1.119 2.5-2.5 0-0.332-0.068-0.649-0.186-0.939l4.946-5.685c0.236 0.073 0.48 0.124 0.74 0.124 0.727 0 1.377-0.316 1.834-0.813l4.669 2.341c0.017 1.367 1.127 2.471 2.497 2.471 1.381 0 2.5-1.119 2.5-2.5 0-0.044-0.011-0.086-0.013-0.13l6.503-5.587c0.309 0.137 0.649 0.216 1.010 0.216 1.381 0 2.5-1.119 2.5-2.5s-1.119-2.5-2.5-2.5z"></path>
</svg>
<svg id="home"  viewBox="0 0 35 32">
<path d="M32.64 15.401c0.599-0.65 0.541-1.646-0.129-2.225l-14.772-12.75c-0.671-0.578-1.745-0.566-2.402 0.027l-14.822 13.403c-0.656 0.594-0.689 1.589-0.071 2.222l0.372 0.382c0.617 0.633 1.613 0.708 2.224 0.168l1.108-0.979v14.326c0 0.879 0.722 1.591 1.612 1.591h5.778c0.89 0 1.612-0.712 1.612-1.591v-10.023h7.37v10.023c-0.013 0.878 0.624 1.59 1.515 1.59h6.123c0.89 0 1.613-0.711 1.613-1.59v-14.124c0 0 0.306 0.264 0.683 0.592s1.168 0.065 1.767-0.586l0.42-0.455z"></path>
</svg>
<svg id="pen"  viewBox="0 0 32 32" >
<path fill="none" stroke-linejoin="round" stroke-linecap="round" stroke-miterlimit="4" stroke-width="2.7429" stroke="#000" d="M24 13.334l-5.333-5.333M3.333 28.667l4.513-0.502c0.551-0.061 0.827-0.092 1.085-0.175 0.229-0.074 0.446-0.178 0.647-0.311 0.226-0.149 0.422-0.345 0.814-0.737l17.608-17.608c1.473-1.473 1.473-3.861 0-5.333s-3.861-1.473-5.333 0l-17.608 17.608c-0.392 0.392-0.588 0.588-0.737 0.814-0.132 0.201-0.237 0.418-0.311 0.647-0.083 0.258-0.114 0.533-0.175 1.085l-0.501 4.513z"></path>
</svg>
<svg id="wallet" viewBox="0 0 30 30">
<path d="M3.52059 7.14286L18.7187 2.88927L17.9139 1.22119C17.3873 0.13694 16.1029 -0.310807 15.0455 0.229123L1.43994 7.14286H3.52059Z" fill="#24CCA7"/>
<path d="M23.2625 2.85718C23.0793 2.85718 22.8962 2.8845 22.713 2.93916L19.2414 3.97757L8.6394 7.1429H20.6734H25.9182L25.2688 4.53776C25.0191 3.52212 24.1782 2.85718 23.2625 2.85718Z" fill="#24CCA7"/>
<path d="M26.5873 8.03711H26.2032H25.6811H25.1589H21.1735H6.52891H4.60865H2.99158H2.69175H1.68782C1.15553 8.03711 0.680516 8.2811 0.370578 8.66548C0.229085 8.84263 0.12128 9.04651 0.0606401 9.27045C0.0235822 9.41083 0 9.5579 0 9.70831V9.90885V11.814V28.3288C0 29.2513 0.754632 30 1.68445 30H26.5839C27.5137 30 28.2684 29.2513 28.2684 28.3288V23.6662H18.2729C16.6929 23.6662 15.4093 22.3927 15.4093 20.8251V19.2943V18.7762V18.2582V17.1084C15.4093 16.3396 15.7193 15.6411 16.2212 15.1297C16.6659 14.6751 17.2622 14.3676 17.9292 14.2907C18.0404 14.2774 18.155 14.2707 18.2695 14.2707H26.8669H27.3891H27.9113H28.2684V9.70831C28.2717 8.78581 27.5171 8.03711 26.5873 8.03711Z" fill="#4A56E2"/>
<path d="M29.4508 15.8683C29.2824 15.7145 29.0836 15.5975 28.8613 15.5207C28.6894 15.4638 28.5075 15.4304 28.3155 15.4304H28.2717H28.238H27.7158H25.8326H18.2728C17.343 15.4304 16.5884 16.1791 16.5884 17.1016V17.9339V18.4519V18.97V20.8217C16.5884 21.7442 17.343 22.4929 18.2728 22.4929H28.2717H28.3155C28.5075 22.4929 28.6894 22.4595 28.8613 22.4027C29.0836 22.3291 29.2824 22.2088 29.4508 22.055C29.7877 21.7509 29.9999 21.3097 29.9999 20.8217V17.1016C29.9999 16.6136 29.7877 16.1724 29.4508 15.8683ZM21.7899 19.2942C21.7899 19.7555 21.4126 20.1298 20.9477 20.1298H20.3885C19.9236 20.1298 19.5463 19.7555 19.5463 19.2942V18.7394C19.5463 18.472 19.6709 18.2347 19.8697 18.0843C20.0145 17.974 20.1931 17.9038 20.3885 17.9038H20.53H20.9477C21.4126 17.9038 21.7899 18.2781 21.7899 18.7394V19.2942Z" fill="#4A56E2"/>
</svg>
<svg id="logout" viewBox="0 0 18 18">
<g clip-path="url(#clip0_5_2678)">
<path d="M11.2788 13.0708H12.6844V15.8818C12.6844 17.0443 11.7386 17.99 10.5761 17.99H2.10814C0.945786 17.99 0 17.0443 0 15.8818V2.10814C0 0.945786 0.945786 0 2.10814 0H10.5761C11.7386 0 12.6844 0.945786 12.6844 2.10814V4.91913H11.2788V2.10814C11.2788 1.72073 10.9637 1.40543 10.5761 1.40543H2.10814C1.72073 1.40543 1.40543 1.72073 1.40543 2.10814V15.8818C1.40543 16.2692 1.72073 16.5845 2.10814 16.5845H10.5761C10.9637 16.5845 11.2788 16.2692 11.2788 15.8818V13.0708ZM14.6872 5.68213L13.6934 6.67598L15.3096 8.29234H6.21922V9.69777H15.3096L13.6934 11.314L14.6872 12.3078L18 8.99506L14.6872 5.68213Z" fill="#BDBDBD"/>
</g>
<defs>
<clipPath id="clip0_5_2678">
<rect width="18" height="18" fill="white"/>
</clipPath>
</defs>
</svg>
<svg id="homesvg" width="38" height="38" viewBox="0 0 38 38">
<g filter="url(#filter0_d_5_2765)">
<rect x="10" y="7" width="18" height="18" rx="2" fill="white"/>
<path fill-rule="evenodd" clip-rule="evenodd" d="M12 7C10.8954 7 10 7.89543 10 9V23C10 24.1046 10.8954 25 12 25H26C27.1046 25 28 24.1046 28 23V9C28 7.89543 27.1046 7 26 7H12ZM17.8 17.1176V21H14.8V15.8235H13L19 10L25 15.8235H23.2V21H20.2V17.1176H17.8Z" fill="#4A56E2"/>
</g>
<defs>
<filter id="filter0_d_5_2765" x="-3" y="-3" width="44" height="44" filterUnits="userSpaceOnUse" color-interpolation-filters="sRGB">
<feFlood flood-opacity="0" result="BackgroundImageFix"/>
<feColorMatrix in="SourceAlpha" type="matrix" values="0 0 0 0 0 0 0 0 0 0 0 0 0 0 0 0 0 0 127 0" result="hardAlpha"/>
<feOffset dy="3"/>
<feGaussianBlur stdDeviation="5"/>
<feColorMatrix type="matrix" values="0 0 0 0 0.290196 0 0 0 0 0.337255 0 0 0 0 0.886275 0 0 0 0.5 0"/>
<feBlend mode="normal" in2="BackgroundImageFix" result="effect1_dropShadow_5_2765"/>
<feBlend mode="normal" in="SourceGraphic" in2="effect1_dropShadow_5_2765" result="shape"/>
</filter>
</defs>
</svg>
<svg id="exchange" width="24" height="24" viewBox="0 0 24 24" >
<path fill-rule="evenodd" clip-rule="evenodd" d="M5 3C3.89543 3 3 3.89543 3 5V19C3 20.1046 3.89543 21 5 21H19C20.1046 21 21 20.1046 21 19V5C21 3.89543 20.1046 3 19 3H5ZM17.7273 10.6667C18.4273 10.6667 19 10.0667 19 9.33333C19 8.6 18.4273 8 17.7273 8C17.0273 8 16.4545 8.6 16.4545 9.33333C16.4545 9.45333 16.4673 9.56667 16.4991 9.67333L14.24 12.0467C14.1382 12.0133 14.0236 12 13.9091 12C13.7945 12 13.68 12.0133 13.5782 12.0467L11.9555 10.3467C11.9873 10.24 12 10.12 12 10C12 9.26667 11.4273 8.66667 10.7273 8.66667C10.0273 8.66667 9.45455 9.26667 9.45455 10C9.45455 10.12 9.46727 10.24 9.49909 10.3467L6.59727 13.38C6.49545 13.3467 6.38727 13.3333 6.27273 13.3333C5.57273 13.3333 5 13.9333 5 14.6667C5 15.4 5.57273 16 6.27273 16C6.97273 16 7.54545 15.4 7.54545 14.6667C7.54545 14.5467 7.53273 14.4333 7.50091 14.3267L10.3964 11.2867C10.4982 11.32 10.6127 11.3333 10.7273 11.3333C10.8418 11.3333 10.9564 11.32 11.0582 11.2867L12.6809 12.9867C12.6491 13.0933 12.6364 13.2133 12.6364 13.3333C12.6364 14.0667 13.2091 14.6667 13.9091 14.6667C14.6091 14.6667 15.1818 14.0667 15.1818 13.3333C15.1818 13.2133 15.1691 13.0933 15.1373 12.9867L17.4027 10.62C17.5045 10.6533 17.6127 10.6667 17.7273 10.6667Z" fill="#6E78E8"/>
</svg>
</svg>
